0
SECTION
2
HEADER
9
$ACADVER
1
AC1015
0
ENDSEC
0
SECTION
2
TABLES
0
TABLE
2
LAYER
70
4
0
LAYER
2
FACILITY_WALLS
70
0
62
7
6
CONTINUOUS
0
LAYER
2
EQUIPMENT_ESD
70
0
62
5
6
CONTINUOUS
0
LAYER
2
LOGISTICS_FIFO
70
0
62
2
6
CONTINUOUS
0
LAYER
2
OPERATOR_SAFETY
70
0
62
3
6
CONTINUOUS
0
ENDTAB
0
ENDSEC
0
SECTION
2
ENTITIES
0
LWPOLYLINE
100
AcDbEntity
8
FACILITY_WALLS
100
AcDbPolyline
90
4
70
1
10
0
20
0
10
30000
20
0
10
30000
20
45000
10
0
20
45000
0
LWPOLYLINE
100
AcDbEntity
8
EQUIPMENT_ESD
100
AcDbPolyline
90
4
70
1
10
15000
20
20000
10
16800
20
20000
10
16800
20
20900
10
15000
20
20900
0
TEXT
100
AcDbEntity
8
EQUIPMENT_ESD
100
AcDbText
10
15900
20
20450
30
0.0
40
150
1
Stół Montażowy (Stanowisko 1 (Układanie ogniw 21700 w matrycy + Laserowe zgrzewanie szyn miedzianych (Busbars) + Montaż płyt chłodzenia cieczą i pasty termoprzewodzącej + Instalacja sterownika BMS i wiązek pomiarowych + Automatyczne skręcanie pokrywy górnej))
72
1
11
15900
21
20450
31
0.0
0
LWPOLYLINE
100
AcDbEntity
8
LOGISTICS_FIFO
100
AcDbPolyline
90
4
70
1
10
13400
20
20000
10
14800
20
20000
10
14800
20
21200
10
13400
20
21200
0
TEXT
100
AcDbEntity
8
LOGISTICS_FIFO
100
AcDbText
10
14100
20
20600
30
0.0
40
150
1
Regał Grawitacyjny FIFO
72
1
11
14100
21
20600
31
0.0
0
LWPOLYLINE
100
AcDbEntity
8
EQUIPMENT_ESD
100
AcDbPolyline
90
4
70
1
10
15000
20
21250
10
15600
20
21250
10
15600
20
21850
10
15000
20
21850
0
TEXT
100
AcDbEntity
8
EQUIPMENT_ESD
100
AcDbText
10
15300
20
21550
30
0.0
40
150
1
Przenośnik Rolkowy Łączący
72
1
11
15300
21
21550
31
0.0
0
LWPOLYLINE
100
AcDbEntity
8
EQUIPMENT_ESD
100
AcDbPolyline
90
4
70
1
10
15000
20
22500
10
16800
20
22500
10
16800
20
23400
10
15000
20
23400
0
TEXT
100
AcDbEntity
8
EQUIPMENT_ESD
100
AcDbText
10
15900
20
22950
30
0.0
40
150
1
Stół Montażowy (Stanowisko 2 (Test wysokonapięciowy HV i próba szczelności helowej))
72
1
11
15900
21
22950
31
0.0
0
LWPOLYLINE
100
AcDbEntity
8
LOGISTICS_FIFO
100
AcDbPolyline
90
4
70
1
10
13400
20
22500
10
14800
20
22500
10
14800
20
23700
10
13400
20
23700
0
TEXT
100
AcDbEntity
8
LOGISTICS_FIFO
100
AcDbText
10
14100
20
23100
30
0.0
40
150
1
Regał Grawitacyjny FIFO
72
1
11
14100
21
23100
31
0.0
0
ENDSEC
0
EOF