0
SECTION
2
HEADER
9
$ACADVER
1
AC1021
9
$INSUNITS
70
4
0
ENDSEC
0
SECTION
2
ENTITIES
0
LWPOLYLINE
100
AcDbEntity
8
FACILITY
100
AcDbPolyline
90
4
70
1
10
0
20
0
10
40000
20
0
10
40000
20
-40000
10
0
20
-40000
0
TEXT
100
AcDbEntity
8
FACILITY
100
AcDbText
10
0
20
0
30
0
40
120
1
Eko — wariant testowy (czasy montażu przykładowe)
0
LWPOLYLINE
100
AcDbEntity
8
EQUIPMENT
100
AcDbPolyline
90
4
70
1
10
14100
20
-19750
10
15900
20
-19750
10
15900
20
-20650
10
14100
20
-20650
0
TEXT
100
AcDbEntity
8
EQUIPMENT
100
AcDbText
10
14100
20
-19750
30
0
40
120
1
Stanowisko 1 1800x900 mm
0
LWPOLYLINE
100
AcDbEntity
8
LOGISTICS
100
AcDbPolyline
90
4
70
1
10
14100
20
-18350
10
15500
20
-18350
10
15500
20
-19550
10
14100
20
-19550
0
TEXT
100
AcDbEntity
8
LOGISTICS
100
AcDbText
10
14100
20
-18350
30
0
40
120
1
FIFO WS-1 1400x1200 mm
0
LWPOLYLINE
100
AcDbEntity
8
OPERATORS
100
AcDbPolyline
90
4
70
1
10
14100
20
-20850
10
15300
20
-20850
10
15300
20
-21650
10
14100
20
-21650
0
TEXT
100
AcDbEntity
8
OPERATORS
100
AcDbText
10
14100
20
-20850
30
0
40
120
1
Obsada 1 · WS-1 1200x800 mm
0
LWPOLYLINE
100
AcDbEntity
8
EQUIPMENT
100
AcDbPolyline
90
4
70
1
10
16600
20
-19750
10
18400
20
-19750
10
18400
20
-20650
10
16600
20
-20650
0
TEXT
100
AcDbEntity
8
EQUIPMENT
100
AcDbText
10
16600
20
-19750
30
0
40
120
1
Stanowisko 2 1800x900 mm
0
LWPOLYLINE
100
AcDbEntity
8
LOGISTICS
100
AcDbPolyline
90
4
70
1
10
16600
20
-18350
10
18000
20
-18350
10
18000
20
-19550
10
16600
20
-19550
0
TEXT
100
AcDbEntity
8
LOGISTICS
100
AcDbText
10
16600
20
-18350
30
0
40
120
1
FIFO WS-2 1400x1200 mm
0
LWPOLYLINE
100
AcDbEntity
8
OPERATORS
100
AcDbPolyline
90
4
70
1
10
16600
20
-20850
10
17800
20
-20850
10
17800
20
-21650
10
16600
20
-21650
0
TEXT
100
AcDbEntity
8
OPERATORS
100
AcDbText
10
16600
20
-20850
30
0
40
120
1
Obsada 1 · WS-2 1200x800 mm
0
LWPOLYLINE
100
AcDbEntity
8
EQUIPMENT
100
AcDbPolyline
90
4
70
1
10
19100
20
-19750
10
20900
20
-19750
10
20900
20
-20650
10
19100
20
-20650
0
TEXT
100
AcDbEntity
8
EQUIPMENT
100
AcDbText
10
19100
20
-19750
30
0
40
120
1
Stanowisko 3 1800x900 mm
0
LWPOLYLINE
100
AcDbEntity
8
LOGISTICS
100
AcDbPolyline
90
4
70
1
10
19100
20
-18350
10
20500
20
-18350
10
20500
20
-19550
10
19100
20
-19550
0
TEXT
100
AcDbEntity
8
LOGISTICS
100
AcDbText
10
19100
20
-18350
30
0
40
120
1
FIFO WS-3 1400x1200 mm
0
LWPOLYLINE
100
AcDbEntity
8
OPERATORS
100
AcDbPolyline
90
4
70
1
10
19100
20
-20850
10
20300
20
-20850
10
20300
20
-21650
10
19100
20
-21650
0
TEXT
100
AcDbEntity
8
OPERATORS
100
AcDbText
10
19100
20
-20850
30
0
40
120
1
Obsada 1 · WS-3 1200x800 mm
0
LWPOLYLINE
100
AcDbEntity
8
EQUIPMENT
100
AcDbPolyline
90
4
70
1
10
21100
20
-22500
10
22900
20
-22500
10
22900
20
-23400
10
21100
20
-23400
0
TEXT
100
AcDbEntity
8
EQUIPMENT
100
AcDbText
10
21100
20
-22500
30
0
40
120
1
Stanowisko 4 1800x900 mm
0
LWPOLYLINE
100
AcDbEntity
8
LOGISTICS
100
AcDbPolyline
90
4
70
1
10
18900
20
-22300
10
20300
20
-22300
10
20300
20
-23500
10
18900
20
-23500
0
TEXT
100
AcDbEntity
8
LOGISTICS
100
AcDbText
10
18900
20
-22300
30
0
40
120
1
FIFO WS-4 1400x1200 mm
0
LWPOLYLINE
100
AcDbEntity
8
OPERATORS
100
AcDbPolyline
90
4
70
1
10
20400
20
-23300
10
21600
20
-23300
10
21600
20
-24100
10
20400
20
-24100
0
TEXT
100
AcDbEntity
8
OPERATORS
100
AcDbText
10
20400
20
-23300
30
0
40
120
1
Obsada 1 · WS-4 1200x800 mm
0
LWPOLYLINE
100
AcDbEntity
8
EQUIPMENT
100
AcDbPolyline
90
4
70
1
10
20400
20
-16300
10
22200
20
-16300
10
22200
20
-17200
10
20400
20
-17200
0
TEXT
100
AcDbEntity
8
EQUIPMENT
100
AcDbText
10
20400
20
-16300
30
0
40
120
1
Stanowisko 5 1800x900 mm
0
LWPOLYLINE
100
AcDbEntity
8
LOGISTICS
100
AcDbPolyline
90
4
70
1
10
19000
20
-16100
10
20400
20
-16100
10
20400
20
-17300
10
19000
20
-17300
0
TEXT
100
AcDbEntity
8
LOGISTICS
100
AcDbText
10
19000
20
-16100
30
0
40
120
1
FIFO WS-5 1400x1200 mm
0
LWPOLYLINE
100
AcDbEntity
8
OPERATORS
100
AcDbPolyline
90
4
70
1
10
20600
20
-14700
10
21800
20
-14700
10
21800
20
-15500
10
20600
20
-15500
0
TEXT
100
AcDbEntity
8
OPERATORS
100
AcDbText
10
20600
20
-14700
30
0
40
120
1
Obsada 1 · WS-5 1200x800 mm
0
LWPOLYLINE
100
AcDbEntity
8
EQUIPMENT
100
AcDbPolyline
90
4
70
1
10
21600
20
-19750
10
23400
20
-19750
10
23400
20
-20650
10
21600
20
-20650
0
TEXT
100
AcDbEntity
8
EQUIPMENT
100
AcDbText
10
21600
20
-19750
30
0
40
120
1
Stanowisko 6 1800x900 mm
0
LWPOLYLINE
100
AcDbEntity
8
LOGISTICS
100
AcDbPolyline
90
4
70
1
10
21600
20
-18350
10
23000
20
-18350
10
23000
20
-19550
10
21600
20
-19550
0
TEXT
100
AcDbEntity
8
LOGISTICS
100
AcDbText
10
21600
20
-18350
30
0
40
120
1
FIFO WS-6 1400x1200 mm
0
LWPOLYLINE
100
AcDbEntity
8
OPERATORS
100
AcDbPolyline
90
4
70
1
10
21600
20
-20850
10
22800
20
-20850
10
22800
20
-21650
10
21600
20
-21650
0
TEXT
100
AcDbEntity
8
OPERATORS
100
AcDbText
10
21600
20
-20850
30
0
40
120
1
Obsada 1 · WS-6 1200x800 mm
0
LWPOLYLINE
100
AcDbEntity
8
EQUIPMENT
100
AcDbPolyline
90
4
70
1
10
24200
20
-19800
10
26000
20
-19800
10
26000
20
-20700
10
24200
20
-20700
0
TEXT
100
AcDbEntity
8
EQUIPMENT
100
AcDbText
10
24200
20
-19800
30
0
40
120
1
Stanowisko 7 1800x900 mm
0
LWPOLYLINE
100
AcDbEntity
8
LOGISTICS
100
AcDbPolyline
90
4
70
1
10
24100
20
-18400
10
25500
20
-18400
10
25500
20
-19600
10
24100
20
-19600
0
TEXT
100
AcDbEntity
8
LOGISTICS
100
AcDbText
10
24100
20
-18400
30
0
40
120
1
FIFO WS-7 1400x1200 mm
0
LWPOLYLINE
100
AcDbEntity
8
OPERATORS
100
AcDbPolyline
90
4
70
1
10
24100
20
-20850
10
25300
20
-20850
10
25300
20
-21650
10
24100
20
-21650
0
TEXT
100
AcDbEntity
8
OPERATORS
100
AcDbText
10
24100
20
-20850
30
0
40
120
1
Obsada 1 · WS-7 1200x800 mm
0
LWPOLYLINE
100
AcDbEntity
8
EQUIPMENT
100
AcDbPolyline
90
4
70
1
10
11000
20
-19750
10
13400
20
-19750
10
13400
20
-21350
10
11000
20
-21350
0
TEXT
100
AcDbEntity
8
EQUIPMENT
100
AcDbText
10
11000
20
-19750
30
0
40
120
1
Wejście materiału 2400x1600 mm
0
LWPOLYLINE
100
AcDbEntity
8
EQUIPMENT
100
AcDbPolyline
90
4
70
1
10
26600
20
-19800
10
29000
20
-19800
10
29000
20
-21400
10
26600
20
-21400
0
TEXT
100
AcDbEntity
8
EQUIPMENT
100
AcDbText
10
26600
20
-19800
30
0
40
120
1
Wyroby gotowe 2400x1600 mm
0
ENDSEC
0
EOF