0
SECTION
2
HEADER
9
$ACADVER
1
AC1021
9
$INSUNITS
70
4
0
ENDSEC
0
SECTION
2
ENTITIES
0
LWPOLYLINE
100
AcDbEntity
8
FACILITY
100
AcDbPolyline
90
4
70
1
10
0
20
0
10
24000
20
0
10
24000
20
-32000
10
0
20
-32000
0
TEXT
100
AcDbEntity
8
FACILITY
100
AcDbText
10
0
20
0
30
0
40
120
1
Nowy projekt linii
0
LWPOLYLINE
100
AcDbEntity
8
EQUIPMENT
100
AcDbPolyline
90
4
70
1
10
8900
20
-12750
10
10700
20
-12750
10
10700
20
-13650
10
8900
20
-13650
0
TEXT
100
AcDbEntity
8
EQUIPMENT
100
AcDbText
10
8900
20
-12750
30
0
40
120
1
Stanowisko 1 1800x900 mm
0
LWPOLYLINE
100
AcDbEntity
8
LOGISTICS
100
AcDbPolyline
90
4
70
1
10
8900
20
-11350
10
10300
20
-11350
10
10300
20
-12550
10
8900
20
-12550
0
TEXT
100
AcDbEntity
8
LOGISTICS
100
AcDbText
10
8900
20
-11350
30
0
40
120
1
FIFO WS-1 1400x1200 mm
0
LWPOLYLINE
100
AcDbEntity
8
OPERATORS
100
AcDbPolyline
90
4
70
1
10
8900
20
-13850
10
10100
20
-13850
10
10100
20
-14650
10
8900
20
-14650
0
TEXT
100
AcDbEntity
8
OPERATORS
100
AcDbText
10
8900
20
-13850
30
0
40
120
1
Obsada 1 · WS-1 1200x800 mm
0
LWPOLYLINE
100
AcDbEntity
8
EQUIPMENT
100
AcDbPolyline
90
4
70
1
10
11400
20
-12750
10
13200
20
-12750
10
13200
20
-13650
10
11400
20
-13650
0
TEXT
100
AcDbEntity
8
EQUIPMENT
100
AcDbText
10
11400
20
-12750
30
0
40
120
1
Stanowisko 2 1800x900 mm
0
LWPOLYLINE
100
AcDbEntity
8
LOGISTICS
100
AcDbPolyline
90
4
70
1
10
11400
20
-11350
10
12800
20
-11350
10
12800
20
-12550
10
11400
20
-12550
0
TEXT
100
AcDbEntity
8
LOGISTICS
100
AcDbText
10
11400
20
-11350
30
0
40
120
1
FIFO WS-2 1400x1200 mm
0
LWPOLYLINE
100
AcDbEntity
8
OPERATORS
100
AcDbPolyline
90
4
70
1
10
11400
20
-13850
10
12600
20
-13850
10
12600
20
-14650
10
11400
20
-14650
0
TEXT
100
AcDbEntity
8
OPERATORS
100
AcDbText
10
11400
20
-13850
30
0
40
120
1
Obsada 1 · WS-2 1200x800 mm
0
LWPOLYLINE
100
AcDbEntity
8
EQUIPMENT
100
AcDbPolyline
90
4
70
1
10
14000
20
-13000
10
15800
20
-13000
10
15800
20
-13900
10
14000
20
-13900
0
TEXT
100
AcDbEntity
8
EQUIPMENT
100
AcDbText
10
14000
20
-13000
30
0
40
120
1
Stanowisko 3 1800x900 mm
0
LWPOLYLINE
100
AcDbEntity
8
LOGISTICS
100
AcDbPolyline
90
4
70
1
10
13900
20
-11350
10
15300
20
-11350
10
15300
20
-12550
10
13900
20
-12550
0
TEXT
100
AcDbEntity
8
LOGISTICS
100
AcDbText
10
13900
20
-11350
30
0
40
120
1
FIFO WS-3 1400x1200 mm
0
LWPOLYLINE
100
AcDbEntity
8
OPERATORS
100
AcDbPolyline
90
4
70
1
10
13900
20
-13850
10
15100
20
-13850
10
15100
20
-14650
10
13900
20
-14650
0
TEXT
100
AcDbEntity
8
OPERATORS
100
AcDbText
10
13900
20
-13850
30
0
40
120
1
Obsada 1 · WS-3 1200x800 mm
0
LWPOLYLINE
100
AcDbEntity
8
EQUIPMENT
100
AcDbPolyline
90
4
70
1
10
16000
20
-16000
10
17800
20
-16000
10
17800
20
-16900
10
16000
20
-16900
0
TEXT
100
AcDbEntity
8
EQUIPMENT
100
AcDbText
10
16000
20
-16000
30
0
40
120
1
Stanowisko 4 1800x900 mm
0
LWPOLYLINE
100
AcDbEntity
8
LOGISTICS
100
AcDbPolyline
90
4
70
1
10
16400
20
-11350
10
17800
20
-11350
10
17800
20
-12550
10
16400
20
-12550
0
TEXT
100
AcDbEntity
8
LOGISTICS
100
AcDbText
10
16400
20
-11350
30
0
40
120
1
FIFO WS-4 1400x1200 mm
0
LWPOLYLINE
100
AcDbEntity
8
OPERATORS
100
AcDbPolyline
90
4
70
1
10
16400
20
-13850
10
17600
20
-13850
10
17600
20
-14650
10
16400
20
-14650
0
TEXT
100
AcDbEntity
8
OPERATORS
100
AcDbText
10
16400
20
-13850
30
0
40
120
1
Obsada 1 · WS-4 1200x800 mm
0
LWPOLYLINE
100
AcDbEntity
8
EQUIPMENT
100
AcDbPolyline
90
4
70
1
10
13000
20
-22000
10
14800
20
-22000
10
14800
20
-22900
10
13000
20
-22900
0
TEXT
100
AcDbEntity
8
EQUIPMENT
100
AcDbText
10
13000
20
-22000
30
0
40
120
1
Stanowisko 5 1800x900 mm
0
LWPOLYLINE
100
AcDbEntity
8
LOGISTICS
100
AcDbPolyline
90
4
70
1
10
17000
20
-21000
10
18400
20
-21000
10
18400
20
-22200
10
17000
20
-22200
0
TEXT
100
AcDbEntity
8
LOGISTICS
100
AcDbText
10
17000
20
-21000
30
0
40
120
1
FIFO WS-5 1400x1200 mm
0
LWPOLYLINE
100
AcDbEntity
8
OPERATORS
100
AcDbPolyline
90
4
70
1
10
14000
20
-17000
10
15200
20
-17000
10
15200
20
-17800
10
14000
20
-17800
0
TEXT
100
AcDbEntity
8
OPERATORS
100
AcDbText
10
14000
20
-17000
30
0
40
120
1
Obsada 1 · WS-5 1200x800 mm
0
LWPOLYLINE
100
AcDbEntity
8
EQUIPMENT
100
AcDbPolyline
90
4
70
1
10
13000
20
-16000
10
14800
20
-16000
10
14800
20
-16900
10
13000
20
-16900
0
TEXT
100
AcDbEntity
8
EQUIPMENT
100
AcDbText
10
13000
20
-16000
30
0
40
120
1
Stanowisko 6 1800x900 mm
0
LWPOLYLINE
100
AcDbEntity
8
LOGISTICS
100
AcDbPolyline
90
4
70
1
10
11400
20
-17350
10
12800
20
-17350
10
12800
20
-18550
10
11400
20
-18550
0
TEXT
100
AcDbEntity
8
LOGISTICS
100
AcDbText
10
11400
20
-17350
30
0
40
120
1
FIFO WS-6 1400x1200 mm
0
LWPOLYLINE
100
AcDbEntity
8
OPERATORS
100
AcDbPolyline
90
4
70
1
10
12000
20
-20000
10
13200
20
-20000
10
13200
20
-20800
10
12000
20
-20800
0
TEXT
100
AcDbEntity
8
OPERATORS
100
AcDbText
10
12000
20
-20000
30
0
40
120
1
Obsada 1 · WS-6 1200x800 mm
0
LWPOLYLINE
100
AcDbEntity
8
EQUIPMENT
100
AcDbPolyline
90
4
70
1
10
9000
20
-21000
10
10800
20
-21000
10
10800
20
-21900
10
9000
20
-21900
0
TEXT
100
AcDbEntity
8
EQUIPMENT
100
AcDbText
10
9000
20
-21000
30
0
40
120
1
Stanowisko 7 1800x900 mm
0
LWPOLYLINE
100
AcDbEntity
8
LOGISTICS
100
AcDbPolyline
90
4
70
1
10
8900
20
-17350
10
10300
20
-17350
10
10300
20
-18550
10
8900
20
-18550
0
TEXT
100
AcDbEntity
8
LOGISTICS
100
AcDbText
10
8900
20
-17350
30
0
40
120
1
FIFO WS-7 1400x1200 mm
0
LWPOLYLINE
100
AcDbEntity
8
OPERATORS
100
AcDbPolyline
90
4
70
1
10
8900
20
-19850
10
10100
20
-19850
10
10100
20
-20650
10
8900
20
-20650
0
TEXT
100
AcDbEntity
8
OPERATORS
100
AcDbText
10
8900
20
-19850
30
0
40
120
1
Obsada 1 · WS-7 1200x800 mm
0
LWPOLYLINE
100
AcDbEntity
8
EQUIPMENT
100
AcDbPolyline
90
4
70
1
10
5800
20
-12750
10
8200
20
-12750
10
8200
20
-14350
10
5800
20
-14350
0
TEXT
100
AcDbEntity
8
EQUIPMENT
100
AcDbText
10
5800
20
-12750
30
0
40
120
1
Wejście materiału 2400x1600 mm
0
LWPOLYLINE
100
AcDbEntity
8
EQUIPMENT
100
AcDbPolyline
90
4
70
1
10
5800
20
-18750
10
8200
20
-18750
10
8200
20
-20350
10
5800
20
-20350
0
TEXT
100
AcDbEntity
8
EQUIPMENT
100
AcDbText
10
5800
20
-18750
30
0
40
120
1
Wyroby gotowe 2400x1600 mm
0
ENDSEC
0
EOF